<?xml version="1.0" standalone="no"?>
<!DOCTYPE svg PUBLIC "-//W3C//DTD SVG 20010904//EN"
 "http://www.w3.org/TR/2001/REC-SVG-20010904/DTD/svg10.dtd">
<svg version="1.0" xmlns="http://www.w3.org/2000/svg"
 width="200.000000pt" height="200.000000pt" viewBox="0 0 200.000000 200.000000"
 preserveAspectRatio="xMidYMid meet">
<metadata>
Created by potrace 1.16, written by Peter Selinger 2001-2019
</metadata>
<g transform="translate(0.000000,200.000000) scale(0.100000,-0.100000)"
fill="#000000" stroke="none">
<path d="M139 1201 c-34 -34 -39 -44 -39 -85 0 -26 6 -62 14 -81 24 -57 105
-175 120 -175 15 0 84 101 115 170 51 113 -5 210 -123 210 -43 0 -53 -4 -87
-39z"/>
<path d="M883 1158 c-14 -18 -33 -77 -33 -103 0 -16 -8 -25 -25 -29 -42 -11
-73 -99 -42 -124 6 -5 60 -10 119 -10 102 0 109 1 127 24 l19 24 6 -25 c4 -17
13 -25 27 -25 19 0 18 -3 -11 -36 -42 -49 -39 -88 8 -92 30 -3 34 0 52 40 11
24 20 50 20 59 0 9 16 29 35 43 35 27 46 56 22 56 -7 0 -18 -5 -25 -12 -9 -9
-12 -3 -12 29 0 28 -5 43 -16 47 -31 12 -55 6 -80 -21 -13 -14 -25 -24 -27
-22 -1 2 -7 13 -13 24 -26 48 -114 18 -114 -39 0 -24 -16 -43 -27 -32 -3 3 6
34 20 68 34 83 39 111 27 142 -10 28 -41 35 -57 14z"/>
<path d="M1321 1157 c-25 -31 -43 -96 -48 -178 -6 -87 -5 -89 16 -89 16 0 27
11 40 43 l18 42 -1 -40 -1 -40 77 -2 c71 -2 79 0 96 22 25 31 44 32 57 3 10
-22 15 -23 150 -25 148 -1 175 6 175 49 0 22 -13 23 -30 3 -11 -13 -40 -21
-40 -11 0 2 13 29 30 60 36 69 46 119 31 152 -29 65 -97 -18 -108 -133 -6 -63
-16 -83 -41 -83 -12 0 -11 4 6 16 17 12 22 24 20 47 -3 31 -4 32 -56 33 -61 1
-68 5 -52 34 6 11 10 35 8 53 -6 68 -79 30 -94 -49 -3 -19 -12 -34 -20 -34
-17 0 -18 -22 -2 -38 9 -9 9 -12 -3 -12 -8 0 -19 10 -24 23 -23 51 -115 22
-115 -37 0 -14 -5 -28 -11 -31 -7 -5 -8 7 -4 40 7 42 5 47 -14 52 -25 6 -25
10 -6 43 18 31 19 72 3 88 -16 16 -43 15 -57 -1z"/>
</g>
</svg>
